<?xml version="1.0" encoding="UTF-8"?>
<svg fill="white" id="Layer_2" data-name="Layer 2" xmlns="http://www.w3.org/2000/svg" viewBox="0 0 383.19 367.91">
  <g id="Layer_1-2" data-name="Layer 1">
    <g>
      <path
        d="M0,173.56c1.84-4.19,5.07-5.57,9.58-5.55,25.2,.13,50.4,.01,75.59,.13,2.81,.01,4.18-.74,5.09-3.49,2.56-7.7,6.1-14.98,10.06-22.07,.52-.94,1.4-1.77,1.19-3.4-3.3,0-6.61,0-9.93,0-10.48,0-20.96,.01-31.44,0-5.69-.01-9.22-2.97-9.13-7.57,.09-4.44,3.6-7.38,9.02-7.38,16.47-.03,32.93-.04,49.4,.02,2,0,3.39-.42,4.76-2.1,21.49-26.37,48.63-43.91,81.74-52.04,2.11-.52,3.13-1.33,3.02-3.72-.2-4.48-.16-8.98-.01-13.47,.06-1.97-.72-2.78-2.46-3.48-12.12-4.85-18.78-16.25-16.6-28.15C182.21,8.64,192.59,.12,205.98,.06c17.34-.08,34.68-.08,52.02,0,13.29,.06,23.55,8.47,25.85,20.96,2.28,12.33-4.2,23.56-16.55,28.43-1.83,.72-2.41,1.61-2.34,3.51,.15,4.11,.27,8.25-.03,12.34-.23,3.09,.81,4.21,3.82,4.94,25.6,6.27,48.08,18.45,67.11,36.69,27.77,26.61,43.53,59.14,46.77,97.52,2.83,33.53-5.06,64.55-22.76,93.11-2.63,4.25-5.92,5.71-9.61,4.42-4.88-1.7-6.39-6.98-3.25-12.01,6.69-10.74,11.89-22.12,15.54-34.26,22.8-75.89-24.51-155.72-102.02-172.06-74.98-15.81-147.68,32.34-162.27,107.46-14.62,75.3,36.24,147.92,112.14,159.93,33.58,5.31,64.95-.95,93.94-18.79,.64-.39,1.26-.82,1.91-1.17,4.03-2.18,8.28-1.19,10.46,2.41,2.17,3.58,1.15,7.85-2.74,10.37-10.49,6.82-21.69,12.23-33.58,16.15-76.63,25.27-157.55-11.84-188.34-86.44-1.06-2.57-2.45-3.19-5.01-3.18-15.47,.1-30.94,.06-46.4,.04-1.62,0-3.26,0-4.84-.28-3.45-.63-5.87-3.73-5.85-7.22,.02-3.34,2.28-6.35,5.58-7.07,1.56-.34,3.22-.36,4.83-.36,13.97-.03,27.94-.1,41.91,.05,3.03,.03,3.63-.82,2.87-3.62-1.91-7.12-3.12-14.38-3.52-21.73-.15-2.7-.89-3.61-3.71-3.55-9.48,.18-18.96,.09-28.44,.06-5.66-.01-9.15-3.01-9.04-7.66,.11-4.5,3.52-7.28,9.04-7.3,9.48-.03,18.96-.09,28.44,.05,2.44,.04,3.18-.74,3.27-3.1,.32-7.48,1.11-14.94,2.86-22.22,.76-3.16-.22-3.5-2.95-3.48-16.96,.09-33.93,.05-50.89,.05-6.49,0-12.98-.18-19.46,.06-4.59,.17-8.27-1.04-10.77-5.05v-4.49ZM232.07,35.97c8.35,0,16.69,.01,25.04,0,1.73,0,3.47,.05,5.17-.55,4.64-1.66,7.67-6.41,7.01-11.11-.79-5.6-5.04-9.23-11.31-9.26-17.31-.08-34.63-.08-51.94,0-6.89,.03-11.5,4.46-11.44,10.63,.06,6.19,4.61,10.25,11.7,10.29,8.59,.05,17.19,.01,25.78,.01Zm.06,14.97c-5.11,0-10.23,.1-15.33-.05-2.34-.07-3.05,.78-2.95,3.02,.14,3.24,.19,6.49-.01,9.72-.17,2.65,.94,3.16,3.27,2.83,7.06-1,14.18-.58,21.28-.76,3.87-.1,9.12,2.77,11.16-.2,1.93-2.81,.39-7.95,.53-12.06,.07-2-.69-2.57-2.61-2.54-5.11,.1-10.22,.03-15.33,.03Z" />
      <path
        d="M0,260.39c.96-.29,1.02-1.31,1.55-1.95,2.96-3.52,7.99-3.88,11.15-.76,3.11,3.08,2.96,8-.33,10.88-3.32,2.9-8.41,2.23-11.04-1.47-.5-.7-.89-1.47-1.33-2.21,0-1.5,0-2.99,0-4.49Z" />
      <path
        d="M348.12,216.85c-.03,64.03-52.27,116.22-116.23,116.09-64.03-.13-116.07-52.39-115.91-116.41,.16-63.99,52.05-115.77,116.04-115.81,64.11-.03,116.12,52,116.1,116.13Zm-14.97,.04c.03-55.88-45.06-101.07-100.98-101.2-55.77-.13-101.14,45.14-101.22,100.97-.08,55.73,45.27,101.22,100.99,101.3,55.69,.08,101.18-45.34,101.21-101.07Z" />
      <path
        d="M326.29,318.12c.13-4.1,3.44-7.19,7.59-7.09,4.07,.1,7.37,3.48,7.3,7.48-.07,4.18-3.65,7.48-7.87,7.28-4.1-.19-7.15-3.53-7.01-7.67Z" />
      <path
        d="M208.83,216.37c-.15-1.82-.03-4.1,.95-5.9,1.87-3.43,.31-5.35-2.07-7.56-4.29-3.99-8.37-8.21-12.46-12.41-3.61-3.71-3.76-8.13-.52-11.25,3.05-2.95,7.53-2.76,11.02,.63,4.74,4.61,9.41,9.29,14,14.05,1.4,1.45,2.51,1.81,4.51,1.04,5.05-1.96,10.32-2.01,15.36-.08,2.33,.89,3.54,.27,5.1-1.31,11.05-11.17,22.2-22.25,33.31-33.37,1.41-1.41,2.8-2.83,4.89-3.27,3.28-.69,5.99,.23,7.86,2.97,1.96,2.87,1.95,5.96-.22,8.68-1.78,2.23-3.92,4.18-5.95,6.21-9.69,9.71-19.36,19.45-29.14,29.07-1.79,1.76-2.29,3.11-1.44,5.73,3.05,9.44,.8,17.87-6.59,24.45-7.26,6.46-15.73,7.77-24.73,3.92-8.57-3.67-13.91-12.05-13.87-21.62Zm23.18-7.77c-4.63,.02-8.27,3.71-8.2,8.32,.07,4.4,3.7,8.06,8.08,8.16,4.5,.1,8.35-3.68,8.39-8.23,.04-4.6-3.63-8.26-8.27-8.25Z" />
      <path
        d="M239.56,140.21c0,1.24,.07,2.49-.01,3.72-.28,4.12-3.2,7.04-7.12,7.18-3.88,.14-7.24-2.59-7.67-6.61-.29-2.7-.26-5.46-.05-8.17,.33-4.25,3.63-7.1,7.7-6.97,4.09,.13,6.94,3.1,7.16,7.51,.05,1.11,0,2.23,0,3.35,0,0,0,0-.01,0Z" />
      <path
        d="M308.53,209.45c1.24,0,2.48-.06,3.72,.01,4.07,.24,7.09,3.19,7.3,7.04,.2,3.78-2.59,7.29-6.58,7.73-2.82,.31-5.72,.31-8.54,.03-4.24-.42-6.89-3.8-6.64-7.96,.24-3.92,3.16-6.64,7.39-6.86,1.11-.06,2.23,0,3.35,0Z" />
      <path
        d="M224.54,293.33c0-1.24-.07-2.48,.01-3.72,.28-4.06,3.27-7.03,7.15-7.18,3.85-.14,7.22,2.64,7.65,6.67,.28,2.58,.23,5.21,.07,7.8-.27,4.43-3.69,7.58-7.76,7.39-3.98-.19-6.93-3.32-7.13-7.61-.05-1.11,0-2.23,0-3.35h.01Z" />
      <path
        d="M155.72,209.37c1.37,0,2.76-.13,4.11,.03,3.79,.44,6.36,3.27,6.49,6.99,.13,3.78-2.14,6.8-5.88,7.53-3.08,.6-6.23,.51-9.31,.11-3.94-.51-6.62-3.67-6.59-7.39,.03-3.88,2.95-6.93,7.08-7.29,1.36-.12,2.74-.02,4.11-.02,0,.02,0,.03,0,.05Z" />
    </g>
  </g>
</svg>